<?xml version="1.0" encoding="utf-8"?>
<!-- Generator: Adobe Illustrator 21.1.0, SVG Export Plug-In . SVG Version: 6.00 Build 0)  -->
<svg version="1.1" id="Layer_1" xmlns="http://www.w3.org/2000/svg" xmlns:xlink="http://www.w3.org/1999/xlink" x="0px" y="0px"
	 viewBox="0 0 595.3 841.9" style="enable-background:new 0 0 595.3 841.9;" xml:space="preserve">
<style type="text/css">
	.st0{fill:none;stroke:url(#SVGID_1_);stroke-width:3;stroke-miterlimit:10;}
</style>
<radialGradient id="SVGID_1_" cx="299.1042" cy="419.9812" r="252.5615" gradientUnits="userSpaceOnUse">
	<stop  offset="0" style="stop-color:#00FF41"/>
	<stop  offset="1" style="stop-color:#006622;stop-opacity:0"/>
</radialGradient>
<polyline class="st0" points="548,640.5 48,640.5 48,600.5 548,600.5 548,560.5 48,560.5 48,520.5 548,520.5 548,480.5 48,480.5 
	48,440.5 548,440.5 548,400.5 48,400.5 48,360.5 548,360.5 548,320.5 48,320.5 48,280.5 548,280.5 548,240.5 48,240.5 48,200.5 
	548,200.5 517.5,171 517.5,671 477.5,671 477.5,171 437.5,171 437.5,671 397.5,671 397.5,171 357.5,171 357.5,671 317.5,671 
	317.5,171 277.5,171 277.5,671 237.5,671 237.5,171 197.5,171 197.5,671 157.5,671 157.5,171 117.5,171 117.5,671 77.5,671 
	77.5,171 "/>
</svg>
